<?xml version="1.0" encoding="utf-8"?>
<!-- Generator: Adobe Illustrator 18.0.0, SVG Export Plug-In . SVG Version: 6.00 Build 0)  -->
<!DOCTYPE svg PUBLIC "-//W3C//DTD SVG 1.1//EN" "http://www.w3.org/Graphics/SVG/1.1/DTD/svg11.dtd">
<svg version="1.1" id="Layer_1" xmlns="http://www.w3.org/2000/svg" xmlns:xlink="http://www.w3.org/1999/xlink" x="0px" y="0px"
	 viewBox="0 0 403.7 73.4" enable-background="new 0 0 403.7 73.4" xml:space="preserve">
<g>
	<g>
		<path fill="#FFFFFF" d="M114.4,43.1c-5.1,0-9.8,0-14.8,0c0,4.5,0,8.9,0,13.2c0,3.4-1,4.5-4.5,4.6c-0.9,0-1.8,0-2.7-0.1
			c-2.8-0.3-3.7-1.2-3.7-4.1c0-10.7,0.1-21.4,0-32C88.6,13.2,98,6.2,109,7.3c10.7,1.1,16.3,7.6,16.3,18.3c0,10.3,0,20.5,0,30.8
			c0,3.7-1.1,4.6-5.4,4.6c-4.3,0-5.4-1-5.4-4.7C114.4,51.9,114.4,47.6,114.4,43.1z M114.3,33.7c0-3.7,0.2-7.2-0.1-10.7
			c-0.3-3.8-3.1-6.4-6.6-6.6c-3.9-0.3-7,1.7-7.5,5.7c-0.5,3.8-0.1,7.7-0.1,11.6C104.7,33.7,109.4,33.7,114.3,33.7z"/>
		<path fill="#FFFFFF" d="M220.4,28.5c0-5.6,0-11.2,0-16.9c0-2.7,0.8-3.7,3.5-4c1.1-0.1,2.3-0.1,3.4,0c2.9,0.2,3.9,1.3,3.9,4.2
			c0,10,0,20.1,0,30.1c0,1.1,0,2.1,0.1,3.2c0.4,4.3,3.4,7.2,7.5,7.1c4-0.1,6.8-2.9,7.1-7.2c0.1-1.1,0.1-2.1,0.1-3.2
			c0-9.9,0-19.9,0-29.8c0-3,1-4.1,4.1-4.3c1.3-0.1,2.6-0.1,3.9,0.1C256,8,257,9.1,257,11.2c-0.1,11.2,0.1,22.5-0.1,33.7
			c-0.2,9.3-6.7,15.4-16.8,16.3c-9.2,0.8-17.2-4.6-19.2-13.1c-0.4-1.6-0.4-3.4-0.4-5.1C220.4,38.2,220.4,33.4,220.4,28.5z"/>
		<path fill="#FFFFFF" d="M20.4,42.2c0,5.1,0,9.9,0,14.6c0,2.9-1,3.9-3.9,4.2c-0.8,0.1-1.6,0.1-2.4,0c-3.6-0.1-4.5-1.1-4.5-4.6
			c0-14.6,0-29.2,0-43.8c0-4.1,0.5-4.5,4.4-4.5c3.9,0,7.8,0,11.7,0c13,0,18.3,8.9,17,19.8c-1.1,9.4-6.8,14-17,14.3
			C24,42.2,22.3,42.2,20.4,42.2z M20.5,32.9c3.9-0.1,8.1,0.9,10.4-3.1c1.8-3.2,1.9-6.8-0.3-10c-2.5-3.7-6.5-2.4-10.1-2.6
			C20.5,22.6,20.5,27.6,20.5,32.9z"/>
		<path fill="#FFFFFF" d="M158.9,43.5c0,4.5-0.1,9,0,13.5c0.1,2.5-1.3,3.6-3.5,3.9c-1.1,0.1-2.3,0.1-3.4,0c-3-0.2-4-1.2-4-4.3
			c0-4.3,0-8.6,0-13.1c-0.6-0.2-1.2-0.4-1.8-0.6c-6.9-2.4-11.2-7.9-11.3-15.2c-0.1-5.5,0-11.1-0.1-16.6c0-1.9,0.9-3,2.6-3.2
			c1.8-0.2,3.7-0.3,5.6,0c1.8,0.3,2.7,1.5,2.7,3.5c-0.1,5.1-0.1,10.3,0,15.4c0.1,6.1,4.3,9.2,10.2,7.8c3.3-0.8,5.3-3.5,5.4-7.8
			c0.1-5,0-9.9,0-14.9c0-3.1,0.9-4.1,4-4.3c1-0.1,2-0.1,2.9,0c2.9,0.2,3.9,1.2,3.9,4.2c0,5.1,0.1,10.3,0,15.4
			c-0.1,7.7-4.3,13.3-11.5,15.8C160,43.1,159.5,43.3,158.9,43.5z"/>
		<path fill="#FFFFFF" d="M362.5,43.5c0,4.5-0.1,9,0,13.4c0.1,2.5-1.2,3.6-3.4,3.9c-1,0.1-2,0.1-2.9,0.1c-3.5-0.1-4.5-1.1-4.5-4.6
			c0-4.2,0-8.5,0-12.6c-0.2-0.2-0.3-0.3-0.4-0.4c-9.1-3.1-12.8-8.2-12.8-17.8c0-4.7,0.1-9.5,0-14.2c-0.1-2.3,1.1-3.4,3.1-3.7
			c1.4-0.2,2.9-0.2,4.4-0.1c2.2,0.2,3.5,1.4,3.4,3.9c-0.1,5.1-0.1,10.3,0,15.4c0.2,5.9,4.4,9,10.1,7.6c3.3-0.8,5.3-3.5,5.4-7.7
			c0.1-5.1,0-10.1,0-15.2c0-2.8,0.9-3.8,3.7-4c1.1-0.1,2.1-0.1,3.2,0c3,0.2,3.9,1.2,3.9,4.1c0,5.2,0.1,10.4,0,15.6
			c-0.2,7.6-4.3,13.1-11.5,15.6C363.7,43.1,363.1,43.3,362.5,43.5z"/>
		<path fill="#FFFFFF" d="M192.7,17.3c0,4.2,0,8,0,12.2c4.4,0,8.7,0,12.9,0c4.3,0,6.6,3.9,4.3,7.7c-0.5,0.8-2.2,1.4-3.3,1.4
			c-4.5,0.2-9.1,0.1-14,0.1c0,1,0,1.9,0,2.8c0,5.1,0.1,10.3-0.1,15.4c0,1.1-0.5,2.4-1.3,3.2c-1.5,1.4-6.8,1.3-8.4,0
			c-0.6-0.6-1.1-1.7-1.1-2.5c-0.1-15.4,0-30.8,0-46.2c0-2.2,1-3.2,3.3-3.2c8.1,0,16.3,0.1,24.4,0c2.1,0,3.2,0.9,3.3,3
			c0.1,1.1,0.1,2.3,0,3.4c-0.2,2.1-1.3,3-3.4,2.9c-4.7-0.1-9.4,0-14.2,0C194.5,17.3,193.7,17.3,192.7,17.3z"/>
		<path fill="#FFFFFF" d="M62,51.2c5.8,0,11.2,0,16.7,0c3.2,0,4.1,1,4.1,4.6c0,3.7-0.8,4.7-4,4.7c-7.8,0-15.6,0-23.5,0
			c-3.3,0-4.1-0.8-4.1-4.2c0-14.8,0-29.7,0-44.5c0-2.8,0.9-3.8,3.7-4.1c1-0.1,2.1-0.1,3.2,0c3,0.3,4,1.4,4,4.4c0,12.1,0,24.1,0,36.2
			C62,49,62,49.9,62,51.2z"/>
		<path fill="#FFFFFF" d="M278.3,51.2c5.7,0,11.1,0,16.6,0c3.4,0,4.2,1,4.2,4.7c0,3.6-0.9,4.5-4.1,4.5c-7.8,0-15.6,0-23.5,0
			c-3.1,0-4-0.8-4-3.9c0-15.1,0-30.1,0-45.2c0-2.1,1-3.2,2.9-3.6c1.4-0.2,2.9-0.3,4.4-0.1c2.7,0.3,3.6,1.4,3.6,4.2
			c0,12.1,0,24.3,0,36.4C278.3,49.2,278.3,50.1,278.3,51.2z"/>
		<path fill="#FFFFFF" d="M316,51.2c5.7,0,11.2,0,16.6,0c3.3,0,4.1,0.9,4.1,4.5c0,3.8-0.8,4.7-4.2,4.7c-7.7,0-15.5,0-23.2,0
			c-3.4,0-4.2-0.8-4.2-4.2c0-14.8,0-29.7,0-44.5c0-2.9,0.9-3.9,3.9-4.2c1.1-0.1,2.1-0.1,3.2,0C315,8,316,9,316,11.9
			c0,12.1,0,24.1,0,36.2C316,49,316,49.9,316,51.2z"/>
	</g>
	<circle fill="#FFFFFF" cx="391.1" cy="56.4" r="5"/>
</g>
</svg>
